<?xml version="1.0" encoding="utf-8"?>
<svg xmlns="http://www.w3.org/2000/svg" fill="none" version="1.1" viewBox="4.66929 -388.78 4114.79 384.11" x="4.66929pt" y="-388.78pt" width="4114.79pt" height="384.11pt" stroke-width="0.566929" stroke-miterlimit="10.000000">
 <path d="M5.66929 -5.66929L5.66929 -210.898L217.417 -210.898L217.417 -5.66929Z" stroke="black"/>
 <g transform="matrix(1.000000,0.000000,0.000000,1.000000,111.543307,-108.283465)">
  <path d="M0.886675 -0M2.92902 -6.37609C2.92902 -6.61519 2.92902 -6.63512 2.69988 -6.63512C2.08219 -5.99751 1.20548 -5.99751 0.886675 -5.99751L0.886675 -5.68867C1.08593 -5.68867 1.67372 -5.68867 2.19178 -5.9477L2.19178 -0.787049C2.19178 -0.428394 2.16189 -0.308842 1.26526 -0.308842L0.946451 -0.308842L0.946451 -0C1.29514 -0.0298879 2.16189 -0.0298879 2.5604 -0.0298879C2.9589 -0.0298879 3.82565 -0.0298879 4.17435 -0L4.17435 -0.308842L3.85554 -0.308842C2.9589 -0.308842 2.92902 -0.418431 2.92902 -0.787049ZM2.92902 -0.787049" fill="black"/>
 </g>
 <path d="M223.087 -5.66929L223.087 -387.78L434.835 -387.78L434.835 -5.66929Z" stroke="black"/>
 <g transform="matrix(1.000000,0.000000,0.000000,1.000000,328.960630,-196.724409)">
  <path d="M0.498132 -0M1.26526 -0.767123L2.3213 -1.79328C3.87547 -3.16812 4.47323 -3.7061 4.47323 -4.70237C4.47323 -5.83811 3.57659 -6.63512 2.36115 -6.63512C1.23537 -6.63512 0.498132 -5.71856 0.498132 -4.83188C0.498132 -4.27397 0.996264 -4.27397 1.02615 -4.27397C1.19552 -4.27397 1.54421 -4.39352 1.54421 -4.80199C1.54421 -5.06102 1.36488 -5.32005 1.01619 -5.32005C0.936488 -5.32005 0.916563 -5.32005 0.886675 -5.31009C1.11582 -5.95766 1.6538 -6.32628 2.23163 -6.32628C3.13823 -6.32628 3.56663 -5.5193 3.56663 -4.70237C3.56663 -3.90535 3.06849 -3.11831 2.52055 -2.50062L0.607721 -0.368618C0.498132 -0.259029 0.498132 -0.239103 0.498132 -0L4.19427 -0L4.47323 -1.7335L4.22416 -1.7335C4.17435 -1.43462 4.10461 -0.996264 4.00498 -0.846824C3.93524 -0.767123 3.27771 -0.767123 3.05853 -0.767123ZM3.05853 -0.767123" fill="black"/>
 </g>
 <path d="M440.504 -5.66929L440.504 -98.3622L652.252 -98.3622L652.252 -5.66929Z" stroke="black"/>
 <g transform="matrix(1.000000,0.000000,0.000000,1.000000,546.377953,-52.015748)">
  <path d="M0.418431 -0M2.88917 -3.50685C3.7061 -3.77584 4.28394 -4.47323 4.28394 -5.26027C4.28394 -6.07721 3.40722 -6.63512 2.45081 -6.63512C1.44458 -6.63512 0.687422 -6.03736 0.687422 -5.2802C0.687422 -4.95143 0.9066 -4.76214 1.19552 -4.76214C1.50436 -4.76214 1.70361 -4.98132 1.70361 -5.27024C1.70361 -5.76837 1.23537 -5.76837 1.08593 -5.76837C1.39477 -6.25654 2.0523 -6.38605 2.41096 -6.38605C2.81943 -6.38605 3.36737 -6.16687 3.36737 -5.27024C3.36737 -5.15068 3.34745 -4.57285 3.08842 -4.1345C2.78954 -3.65629 2.45081 -3.6264 2.20174 -3.61644C2.12204 -3.60648 1.88294 -3.58655 1.8132 -3.58655C1.7335 -3.57659 1.66376 -3.56663 1.66376 -3.467C1.66376 -3.35741 1.7335 -3.35741 1.90286 -3.35741L2.34122 -3.35741C3.15816 -3.35741 3.52677 -2.67995 3.52677 -1.70361C3.52677 -0.348692 2.83935 -0.0597758 2.401 -0.0597758C1.9726 -0.0597758 1.2254 -0.229141 0.876712 -0.816936C1.2254 -0.767123 1.53425 -0.986301 1.53425 -1.36488C1.53425 -1.72354 1.26526 -1.92279 0.976339 -1.92279C0.737235 -1.92279 0.418431 -1.78331 0.418431 -1.34496C0.418431 -0.438356 1.34496 0.219178 2.43088 0.219178C3.64633 0.219178 4.55293 -0.687422 4.55293 -1.70361C4.55293 -2.52055 3.92528 -3.29763 2.88917 -3.50685ZM2.88917 -3.50685" fill="black"/>
 </g>
 <path d="M657.921 -5.66929L657.921 -88.1575L827.15 -88.1575L827.15 -5.66929Z" stroke="black"/>
 <g transform="matrix(1.000000,0.000000,0.000000,1.000000,742.535433,-46.913386)">
  <path d="M0.278954 -0M2.92902 -1.64384L2.92902 -0.777086C2.92902 -0.418431 2.90909 -0.308842 2.17186 -0.308842L1.96264 -0.308842L1.96264 -0C2.37111 -0.0298879 2.88917 -0.0298879 3.3076 -0.0298879C3.72603 -0.0298879 4.25405 -0.0298879 4.66252 -0L4.66252 -0.308842L4.4533 -0.308842C3.71606 -0.308842 3.69614 -0.418431 3.69614 -0.777086L3.69614 -1.64384L4.6924 -1.64384L4.6924 -1.95268L3.69614 -1.95268L3.69614 -6.48568C3.69614 -6.68493 3.69614 -6.74471 3.53674 -6.74471C3.44707 -6.74471 3.41719 -6.74471 3.33748 -6.62516L0.278954 -1.95268L0.278954 -1.64384ZM0.278954 -1.64384M2.98879 -1.95268L0.557908 -1.95268L2.98879 -5.66874ZM2.98879 -5.66874" fill="black"/>
 </g>
 <path d="M657.921 -93.8268L657.921 -176.315L827.15 -176.315L827.15 -93.8268Z" stroke="black"/>
 <g transform="matrix(1.000000,0.000000,0.000000,1.000000,742.535433,-135.070866)">
  <path d="M0.278954 -0M2.92902 -1.64384L2.92902 -0.777086C2.92902 -0.418431 2.90909 -0.308842 2.17186 -0.308842L1.96264 -0.308842L1.96264 -0C2.37111 -0.0298879 2.88917 -0.0298879 3.3076 -0.0298879C3.72603 -0.0298879 4.25405 -0.0298879 4.66252 -0L4.66252 -0.308842L4.4533 -0.308842C3.71606 -0.308842 3.69614 -0.418431 3.69614 -0.777086L3.69614 -1.64384L4.6924 -1.64384L4.6924 -1.95268L3.69614 -1.95268L3.69614 -6.48568C3.69614 -6.68493 3.69614 -6.74471 3.53674 -6.74471C3.44707 -6.74471 3.41719 -6.74471 3.33748 -6.62516L0.278954 -1.95268L0.278954 -1.64384ZM0.278954 -1.64384M2.98879 -1.95268L0.557908 -1.95268L2.98879 -5.66874ZM2.98879 -5.66874" fill="black"/>
 </g>
 <path d="M832.819 -5.66929L832.819 -147.402L1002.05 -147.402L1002.05 -5.66929Z" stroke="black"/>
 <g transform="matrix(1.000000,0.000000,0.000000,1.000000,917.433071,-76.535433)">
  <path d="M0.498132 -0M4.47323 -2.00249C4.47323 -3.18804 3.65629 -4.18431 2.58032 -4.18431C2.10212 -4.18431 1.67372 -4.02491 1.31507 -3.67621L1.31507 -5.61893C1.51432 -5.55915 1.84309 -5.48941 2.16189 -5.48941C3.3873 -5.48941 4.08468 -6.39601 4.08468 -6.52553C4.08468 -6.58531 4.05479 -6.63512 3.98506 -6.63512C3.97509 -6.63512 3.95517 -6.63512 3.90535 -6.60523C3.7061 -6.51557 3.21793 -6.31631 2.55044 -6.31631C2.15193 -6.31631 1.69365 -6.38605 1.2254 -6.59527C1.1457 -6.62516 1.12578 -6.62516 1.10585 -6.62516C1.00623 -6.62516 1.00623 -6.54545 1.00623 -6.38605L1.00623 -3.43711C1.00623 -3.25778 1.00623 -3.17808 1.1457 -3.17808C1.21544 -3.17808 1.23537 -3.20797 1.27522 -3.26775C1.38481 -3.42715 1.75342 -3.96513 2.5604 -3.96513C3.07846 -3.96513 3.32752 -3.50685 3.40722 -3.32752C3.56663 -2.9589 3.58655 -2.57036 3.58655 -2.07223C3.58655 -1.72354 3.58655 -1.12578 3.34745 -0.707347C3.10834 -0.318804 2.73973 -0.0597758 2.28144 -0.0597758C1.55417 -0.0597758 0.986301 -0.587796 0.816936 -1.17559C0.846824 -1.16563 0.876712 -1.15567 0.986301 -1.15567C1.31507 -1.15567 1.48443 -1.40473 1.48443 -1.64384C1.48443 -1.88294 1.31507 -2.132 0.986301 -2.132C0.846824 -2.132 0.498132 -2.06227 0.498132 -1.60399C0.498132 -0.747198 1.18555 0.219178 2.30137 0.219178C3.45704 0.219178 4.47323 -0.737235 4.47323 -2.00249ZM4.47323 -2.00249" fill="black"/>
 </g>
 <path d="M1007.72 -5.66929L1007.72 -98.3622L1176.94 -98.3622L1176.94 -5.66929Z" stroke="black"/>
 <g transform="matrix(1.000000,0.000000,0.000000,1.000000,1092.330709,-52.015748)">
  <path d="M0.418431 -0M1.31507 -3.26775L1.31507 -3.50685C1.31507 -6.0274 2.55044 -6.38605 3.05853 -6.38605C3.29763 -6.38605 3.71606 -6.32628 3.93524 -5.98755C3.7858 -5.98755 3.3873 -5.98755 3.3873 -5.53923C3.3873 -5.23039 3.6264 -5.08095 3.84558 -5.08095C4.00498 -5.08095 4.30386 -5.17061 4.30386 -5.55915C4.30386 -6.15691 3.8655 -6.63512 3.03861 -6.63512C1.76339 -6.63512 0.418431 -5.34994 0.418431 -3.14819C0.418431 -0.488169 1.5741 0.219178 2.50062 0.219178C3.60648 0.219178 4.55293 -0.71731 4.55293 -2.03238C4.55293 -3.29763 3.66625 -4.25405 2.5604 -4.25405C1.88294 -4.25405 1.51432 -3.74595 1.31507 -3.26775ZM1.31507 -3.26775M2.50062 -0.0597758C1.87298 -0.0597758 1.5741 -0.657534 1.51432 -0.806974C1.33499 -1.27522 1.33499 -2.07223 1.33499 -2.25156C1.33499 -3.02864 1.6538 -4.02491 2.55044 -4.02491C2.70984 -4.02491 3.16812 -4.02491 3.47696 -3.40722C3.65629 -3.03861 3.65629 -2.53051 3.65629 -2.04234C3.65629 -1.56413 3.65629 -1.066 3.48692 -0.707347C3.18804 -0.109589 2.72976 -0.0597758 2.50062 -0.0597758ZM2.50062 -0.0597758" fill="black"/>
 </g>
 <path d="M1182.61 -5.66929L1182.61 -259.937L1354.68 -259.937L1354.68 -5.66929Z" stroke="black"/>
 <g transform="matrix(1.000000,0.000000,0.000000,1.000000,1268.645669,-132.803150)">
  <path d="M0.418431 -0M1.62391 -4.55293C1.16563 -4.85181 1.12578 -5.19054 1.12578 -5.3599C1.12578 -5.96762 1.77335 -6.38605 2.4807 -6.38605C3.20797 -6.38605 3.84558 -5.868 3.84558 -5.15068C3.84558 -4.58281 3.45704 -4.10461 2.85928 -3.75592ZM2.85928 -3.75592M3.07846 -3.60648C3.79577 -3.97509 4.28394 -4.49315 4.28394 -5.15068C4.28394 -6.06725 3.39726 -6.63512 2.49066 -6.63512C1.4944 -6.63512 0.687422 -5.89788 0.687422 -4.97136C0.687422 -4.79203 0.707347 -4.34371 1.12578 -3.87547C1.23537 -3.75592 1.60399 -3.50685 1.85305 -3.33748C1.27522 -3.04857 0.418431 -2.49066 0.418431 -1.50436C0.418431 -0.448319 1.43462 0.219178 2.4807 0.219178C3.60648 0.219178 4.55293 -0.607721 4.55293 -1.67372C4.55293 -2.03238 4.44334 -2.4807 4.06476 -2.89913C3.87547 -3.10834 3.71606 -3.20797 3.07846 -3.60648ZM3.07846 -3.60648M2.08219 -3.18804L3.3076 -2.41096C3.58655 -2.22167 4.05479 -1.92279 4.05479 -1.31507C4.05479 -0.577833 3.3076 -0.0597758 2.49066 -0.0597758C1.63387 -0.0597758 0.916563 -0.67746 0.916563 -1.50436C0.916563 -2.08219 1.23537 -2.7198 2.08219 -3.18804ZM2.08219 -3.18804" fill="black"/>
 </g>
 <path d="M1360.35 -5.66929L1360.35 -339.024L1532.41 -339.024L1532.41 -5.66929Z" stroke="black"/>
 <g transform="matrix(1.000000,0.000000,0.000000,1.000000,1446.377953,-172.346457)">
  <path d="M0.418431 -0M3.65629 -3.16812L3.65629 -2.84932C3.65629 -0.518057 2.62017 -0.0597758 2.04234 -0.0597758C1.87298 -0.0597758 1.33499 -0.0797011 1.066 -0.418431C1.50436 -0.418431 1.58406 -0.707347 1.58406 -0.876712C1.58406 -1.18555 1.34496 -1.33499 1.12578 -1.33499C0.966376 -1.33499 0.667497 -1.24533 0.667497 -0.856787C0.667497 -0.18929 1.20548 0.219178 2.0523 0.219178C3.33748 0.219178 4.55293 -1.13574 4.55293 -3.27771C4.55293 -5.95766 3.40722 -6.63512 2.52055 -6.63512C1.9726 -6.63512 1.48443 -6.45579 1.05604 -6.00747C0.647572 -5.55915 0.418431 -5.14072 0.418431 -4.39352C0.418431 -3.14819 1.29514 -2.17186 2.41096 -2.17186C3.01868 -2.17186 3.42715 -2.59029 3.65629 -3.16812ZM3.65629 -3.16812M2.42092 -2.401C2.26152 -2.401 1.80324 -2.401 1.4944 -3.02864C1.31507 -3.39726 1.31507 -3.89539 1.31507 -4.38356C1.31507 -4.92154 1.31507 -5.38979 1.52428 -5.75841C1.79328 -6.25654 2.17186 -6.38605 2.52055 -6.38605C2.97883 -6.38605 3.3076 -6.04732 3.47696 -5.599C3.59651 -5.2802 3.63636 -4.65255 3.63636 -4.19427C3.63636 -3.36737 3.29763 -2.401 2.42092 -2.401ZM2.42092 -2.401" fill="black"/>
 </g>
 <path d="M1538.08 -5.66929L1538.08 -98.3622L1710.14 -98.3622L1710.14 -5.66929Z" stroke="black"/>
 <g transform="matrix(1.000000,0.000000,0.000000,1.000000,1624.110236,-52.015748)">
  <path d="M0.886675 -0M2.92902 -6.37609C2.92902 -6.61519 2.92902 -6.63512 2.69988 -6.63512C2.08219 -5.99751 1.20548 -5.99751 0.886675 -5.99751L0.886675 -5.68867C1.08593 -5.68867 1.67372 -5.68867 2.19178 -5.9477L2.19178 -0.787049C2.19178 -0.428394 2.16189 -0.308842 1.26526 -0.308842L0.946451 -0.308842L0.946451 -0C1.29514 -0.0298879 2.16189 -0.0298879 2.5604 -0.0298879C2.9589 -0.0298879 3.82565 -0.0298879 4.17435 -0L4.17435 -0.308842L3.85554 -0.308842C2.9589 -0.308842 2.92902 -0.418431 2.92902 -0.787049ZM2.92902 -0.787049M5.868 -0M7.91034 -6.37609C7.91034 -6.61519 7.91034 -6.63512 7.6812 -6.63512C7.06351 -5.99751 6.1868 -5.99751 5.868 -5.99751L5.868 -5.68867C6.06725 -5.68867 6.65504 -5.68867 7.1731 -5.9477L7.1731 -0.787049C7.1731 -0.428394 7.14321 -0.308842 6.24658 -0.308842L5.92777 -0.308842L5.92777 -0C6.27646 -0.0298879 7.14321 -0.0298879 7.54172 -0.0298879C7.94022 -0.0298879 8.80697 -0.0298879 9.15567 -0L9.15567 -0.308842L8.83686 -0.308842C7.94022 -0.308842 7.91034 -0.418431 7.91034 -0.787049ZM7.91034 -0.787049" fill="black"/>
 </g>
 <path d="M1715.81 -5.66929L1715.81 -214.583L1885.04 -214.583L1885.04 -5.66929Z" stroke="black"/>
 <g transform="matrix(1.000000,0.000000,0.000000,1.000000,1800.425197,-110.125984)">
  <path d="M0.886675 -0M2.92902 -6.37609C2.92902 -6.61519 2.92902 -6.63512 2.69988 -6.63512C2.08219 -5.99751 1.20548 -5.99751 0.886675 -5.99751L0.886675 -5.68867C1.08593 -5.68867 1.67372 -5.68867 2.19178 -5.9477L2.19178 -0.787049C2.19178 -0.428394 2.16189 -0.308842 1.26526 -0.308842L0.946451 -0.308842L0.946451 -0C1.29514 -0.0298879 2.16189 -0.0298879 2.5604 -0.0298879C2.9589 -0.0298879 3.82565 -0.0298879 4.17435 -0L4.17435 -0.308842L3.85554 -0.308842C2.9589 -0.308842 2.92902 -0.418431 2.92902 -0.787049ZM2.92902 -0.787049M5.47945 -0M6.24658 -0.767123L7.30262 -1.79328C8.85679 -3.16812 9.45455 -3.7061 9.45455 -4.70237C9.45455 -5.83811 8.55791 -6.63512 7.34247 -6.63512C6.21669 -6.63512 5.47945 -5.71856 5.47945 -4.83188C5.47945 -4.27397 5.97758 -4.27397 6.00747 -4.27397C6.17684 -4.27397 6.52553 -4.39352 6.52553 -4.80199C6.52553 -5.06102 6.3462 -5.32005 5.99751 -5.32005C5.91781 -5.32005 5.89788 -5.32005 5.868 -5.31009C6.09714 -5.95766 6.63512 -6.32628 7.21295 -6.32628C8.11955 -6.32628 8.54795 -5.5193 8.54795 -4.70237C8.54795 -3.90535 8.04981 -3.11831 7.50187 -2.50062L5.58904 -0.368618C5.47945 -0.259029 5.47945 -0.239103 5.47945 -0L9.17559 -0L9.45455 -1.7335L9.20548 -1.7335C9.15567 -1.43462 9.08593 -0.996264 8.9863 -0.846824C8.91656 -0.767123 8.25903 -0.767123 8.03985 -0.767123ZM8.03985 -0.767123" fill="black"/>
 </g>
 <path d="M1890.71 -5.66929L1890.71 -48.189L2059.94 -48.189L2059.94 -5.66929Z" stroke="black"/>
 <g transform="matrix(1.000000,0.000000,0.000000,1.000000,1975.322835,-26.929134)">
  <path d="M0.886675 -0M2.92902 -6.37609C2.92902 -6.61519 2.92902 -6.63512 2.69988 -6.63512C2.08219 -5.99751 1.20548 -5.99751 0.886675 -5.99751L0.886675 -5.68867C1.08593 -5.68867 1.67372 -5.68867 2.19178 -5.9477L2.19178 -0.787049C2.19178 -0.428394 2.16189 -0.308842 1.26526 -0.308842L0.946451 -0.308842L0.946451 -0C1.29514 -0.0298879 2.16189 -0.0298879 2.5604 -0.0298879C2.9589 -0.0298879 3.82565 -0.0298879 4.17435 -0L4.17435 -0.308842L3.85554 -0.308842C2.9589 -0.308842 2.92902 -0.418431 2.92902 -0.787049ZM2.92902 -0.787049M5.39975 -0M7.87049 -3.50685C8.68742 -3.77584 9.26526 -4.47323 9.26526 -5.26027C9.26526 -6.07721 8.38854 -6.63512 7.43213 -6.63512C6.4259 -6.63512 5.66874 -6.03736 5.66874 -5.2802C5.66874 -4.95143 5.88792 -4.76214 6.17684 -4.76214C6.48568 -4.76214 6.68493 -4.98132 6.68493 -5.27024C6.68493 -5.76837 6.21669 -5.76837 6.06725 -5.76837C6.37609 -6.25654 7.03362 -6.38605 7.39228 -6.38605C7.80075 -6.38605 8.34869 -6.16687 8.34869 -5.27024C8.34869 -5.15068 8.32877 -4.57285 8.06974 -4.1345C7.77086 -3.65629 7.43213 -3.6264 7.18306 -3.61644C7.10336 -3.60648 6.86426 -3.58655 6.79452 -3.58655C6.71482 -3.57659 6.64508 -3.56663 6.64508 -3.467C6.64508 -3.35741 6.71482 -3.35741 6.88418 -3.35741L7.32254 -3.35741C8.13948 -3.35741 8.50809 -2.67995 8.50809 -1.70361C8.50809 -0.348692 7.82067 -0.0597758 7.38232 -0.0597758C6.95392 -0.0597758 6.20672 -0.229141 5.85803 -0.816936C6.20672 -0.767123 6.51557 -0.986301 6.51557 -1.36488C6.51557 -1.72354 6.24658 -1.92279 5.95766 -1.92279C5.71856 -1.92279 5.39975 -1.78331 5.39975 -1.34496C5.39975 -0.438356 6.32628 0.219178 7.4122 0.219178C8.62765 0.219178 9.53425 -0.687422 9.53425 -1.70361C9.53425 -2.52055 8.9066 -3.29763 7.87049 -3.50685ZM7.87049 -3.50685" fill="black"/>
 </g>
 <path d="M2065.61 -5.66929L2065.61 -88.1575L2234.83 -88.1575L2234.83 -5.66929Z" stroke="black"/>
 <g transform="matrix(1.000000,0.000000,0.000000,1.000000,2150.220472,-46.913386)">
  <path d="M0.886675 -0M2.92902 -6.37609C2.92902 -6.61519 2.92902 -6.63512 2.69988 -6.63512C2.08219 -5.99751 1.20548 -5.99751 0.886675 -5.99751L0.886675 -5.68867C1.08593 -5.68867 1.67372 -5.68867 2.19178 -5.9477L2.19178 -0.787049C2.19178 -0.428394 2.16189 -0.308842 1.26526 -0.308842L0.946451 -0.308842L0.946451 -0C1.29514 -0.0298879 2.16189 -0.0298879 2.5604 -0.0298879C2.9589 -0.0298879 3.82565 -0.0298879 4.17435 -0L4.17435 -0.308842L3.85554 -0.308842C2.9589 -0.308842 2.92902 -0.418431 2.92902 -0.787049ZM2.92902 -0.787049M5.26027 -0M7.91034 -1.64384L7.91034 -0.777086C7.91034 -0.418431 7.89041 -0.308842 7.15318 -0.308842L6.94396 -0.308842L6.94396 -0C7.35243 -0.0298879 7.87049 -0.0298879 8.28892 -0.0298879C8.70735 -0.0298879 9.23537 -0.0298879 9.64384 -0L9.64384 -0.308842L9.43462 -0.308842C8.69738 -0.308842 8.67746 -0.418431 8.67746 -0.777086L8.67746 -1.64384L9.67372 -1.64384L9.67372 -1.95268L8.67746 -1.95268L8.67746 -6.48568C8.67746 -6.68493 8.67746 -6.74471 8.51806 -6.74471C8.42839 -6.74471 8.39851 -6.74471 8.3188 -6.62516L5.26027 -1.95268L5.26027 -1.64384ZM5.26027 -1.64384M7.97011 -1.95268L5.53923 -1.95268L7.97011 -5.66874ZM7.97011 -5.66874" fill="black"/>
 </g>
 <path d="M2065.61 -93.8268L2065.61 -176.315L2234.83 -176.315L2234.83 -93.8268Z" stroke="black"/>
 <g transform="matrix(1.000000,0.000000,0.000000,1.000000,2150.220472,-135.070866)">
  <path d="M0.886675 -0M2.92902 -6.37609C2.92902 -6.61519 2.92902 -6.63512 2.69988 -6.63512C2.08219 -5.99751 1.20548 -5.99751 0.886675 -5.99751L0.886675 -5.68867C1.08593 -5.68867 1.67372 -5.68867 2.19178 -5.9477L2.19178 -0.787049C2.19178 -0.428394 2.16189 -0.308842 1.26526 -0.308842L0.946451 -0.308842L0.946451 -0C1.29514 -0.0298879 2.16189 -0.0298879 2.5604 -0.0298879C2.9589 -0.0298879 3.82565 -0.0298879 4.17435 -0L4.17435 -0.308842L3.85554 -0.308842C2.9589 -0.308842 2.92902 -0.418431 2.92902 -0.787049ZM2.92902 -0.787049M5.26027 -0M7.91034 -1.64384L7.91034 -0.777086C7.91034 -0.418431 7.89041 -0.308842 7.15318 -0.308842L6.94396 -0.308842L6.94396 -0C7.35243 -0.0298879 7.87049 -0.0298879 8.28892 -0.0298879C8.70735 -0.0298879 9.23537 -0.0298879 9.64384 -0L9.64384 -0.308842L9.43462 -0.308842C8.69738 -0.308842 8.67746 -0.418431 8.67746 -0.777086L8.67746 -1.64384L9.67372 -1.64384L9.67372 -1.95268L8.67746 -1.95268L8.67746 -6.48568C8.67746 -6.68493 8.67746 -6.74471 8.51806 -6.74471C8.42839 -6.74471 8.39851 -6.74471 8.3188 -6.62516L5.26027 -1.95268L5.26027 -1.64384ZM5.26027 -1.64384M7.97011 -1.95268L5.53923 -1.95268L7.97011 -5.66874ZM7.97011 -5.66874" fill="black"/>
 </g>
 <path d="M2240.5 -5.66929L2240.5 -214.583L2290.96 -214.583L2290.96 -5.66929Z" stroke="black"/>
 <g transform="matrix(1.000000,0.000000,0.000000,1.000000,2265.732283,-110.125984)">
  <path d="M0.886675 -0M2.92902 -6.37609C2.92902 -6.61519 2.92902 -6.63512 2.69988 -6.63512C2.08219 -5.99751 1.20548 -5.99751 0.886675 -5.99751L0.886675 -5.68867C1.08593 -5.68867 1.67372 -5.68867 2.19178 -5.9477L2.19178 -0.787049C2.19178 -0.428394 2.16189 -0.308842 1.26526 -0.308842L0.946451 -0.308842L0.946451 -0C1.29514 -0.0298879 2.16189 -0.0298879 2.5604 -0.0298879C2.9589 -0.0298879 3.82565 -0.0298879 4.17435 -0L4.17435 -0.308842L3.85554 -0.308842C2.9589 -0.308842 2.92902 -0.418431 2.92902 -0.787049ZM2.92902 -0.787049M5.47945 -0M9.45455 -2.00249C9.45455 -3.18804 8.63761 -4.18431 7.56164 -4.18431C7.08344 -4.18431 6.65504 -4.02491 6.29639 -3.67621L6.29639 -5.61893C6.49564 -5.55915 6.82441 -5.48941 7.14321 -5.48941C8.36862 -5.48941 9.066 -6.39601 9.066 -6.52553C9.066 -6.58531 9.03611 -6.63512 8.96638 -6.63512C8.95641 -6.63512 8.93649 -6.63512 8.88667 -6.60523C8.68742 -6.51557 8.19925 -6.31631 7.53176 -6.31631C7.13325 -6.31631 6.67497 -6.38605 6.20672 -6.59527C6.12702 -6.62516 6.1071 -6.62516 6.08717 -6.62516C5.98755 -6.62516 5.98755 -6.54545 5.98755 -6.38605L5.98755 -3.43711C5.98755 -3.25778 5.98755 -3.17808 6.12702 -3.17808C6.19676 -3.17808 6.21669 -3.20797 6.25654 -3.26775C6.36613 -3.42715 6.73474 -3.96513 7.54172 -3.96513C8.05978 -3.96513 8.30884 -3.50685 8.38854 -3.32752C8.54795 -2.9589 8.56787 -2.57036 8.56787 -2.07223C8.56787 -1.72354 8.56787 -1.12578 8.32877 -0.707347C8.08966 -0.318804 7.72105 -0.0597758 7.26276 -0.0597758C6.53549 -0.0597758 5.96762 -0.587796 5.79826 -1.17559C5.82814 -1.16563 5.85803 -1.15567 5.96762 -1.15567C6.29639 -1.15567 6.46575 -1.40473 6.46575 -1.64384C6.46575 -1.88294 6.29639 -2.132 5.96762 -2.132C5.82814 -2.132 5.47945 -2.06227 5.47945 -1.60399C5.47945 -0.747198 6.16687 0.219178 7.28269 0.219178C8.43836 0.219178 9.45455 -0.737235 9.45455 -2.00249ZM9.45455 -2.00249" fill="black"/>
 </g>
 <path d="M2296.63 -5.66929L2296.63 -214.583L2372.6 -214.583L2372.6 -5.66929Z" stroke="black"/>
 <g transform="matrix(1.000000,0.000000,0.000000,1.000000,2334.614173,-110.125984)">
  <path d="M0.886675 -0M2.92902 -6.37609C2.92902 -6.61519 2.92902 -6.63512 2.69988 -6.63512C2.08219 -5.99751 1.20548 -5.99751 0.886675 -5.99751L0.886675 -5.68867C1.08593 -5.68867 1.67372 -5.68867 2.19178 -5.9477L2.19178 -0.787049C2.19178 -0.428394 2.16189 -0.308842 1.26526 -0.308842L0.946451 -0.308842L0.946451 -0C1.29514 -0.0298879 2.16189 -0.0298879 2.5604 -0.0298879C2.9589 -0.0298879 3.82565 -0.0298879 4.17435 -0L4.17435 -0.308842L3.85554 -0.308842C2.9589 -0.308842 2.92902 -0.418431 2.92902 -0.787049ZM2.92902 -0.787049M5.39975 -0M6.29639 -3.26775L6.29639 -3.50685C6.29639 -6.0274 7.53176 -6.38605 8.03985 -6.38605C8.27895 -6.38605 8.69738 -6.32628 8.91656 -5.98755C8.76712 -5.98755 8.36862 -5.98755 8.36862 -5.53923C8.36862 -5.23039 8.60772 -5.08095 8.8269 -5.08095C8.9863 -5.08095 9.28518 -5.17061 9.28518 -5.55915C9.28518 -6.15691 8.84682 -6.63512 8.01993 -6.63512C6.74471 -6.63512 5.39975 -5.34994 5.39975 -3.14819C5.39975 -0.488169 6.55542 0.219178 7.48194 0.219178C8.5878 0.219178 9.53425 -0.71731 9.53425 -2.03238C9.53425 -3.29763 8.64757 -4.25405 7.54172 -4.25405C6.86426 -4.25405 6.49564 -3.74595 6.29639 -3.26775ZM6.29639 -3.26775M7.48194 -0.0597758C6.8543 -0.0597758 6.55542 -0.657534 6.49564 -0.806974C6.31631 -1.27522 6.31631 -2.07223 6.31631 -2.25156C6.31631 -3.02864 6.63512 -4.02491 7.53176 -4.02491C7.69116 -4.02491 8.14944 -4.02491 8.45828 -3.40722C8.63761 -3.03861 8.63761 -2.53051 8.63761 -2.04234C8.63761 -1.56413 8.63761 -1.066 8.46824 -0.707347C8.16936 -0.109589 7.71108 -0.0597758 7.48194 -0.0597758ZM7.48194 -0.0597758" fill="black"/>
 </g>
 <path d="M2378.27 -5.66929L2378.27 -214.583L2547.5 -214.583L2547.5 -5.66929Z" stroke="black"/>
 <g transform="matrix(1.000000,0.000000,0.000000,1.000000,2462.881890,-110.125984)">
  <path d="M0.886675 -0M2.92902 -6.37609C2.92902 -6.61519 2.92902 -6.63512 2.69988 -6.63512C2.08219 -5.99751 1.20548 -5.99751 0.886675 -5.99751L0.886675 -5.68867C1.08593 -5.68867 1.67372 -5.68867 2.19178 -5.9477L2.19178 -0.787049C2.19178 -0.428394 2.16189 -0.308842 1.26526 -0.308842L0.946451 -0.308842L0.946451 -0C1.29514 -0.0298879 2.16189 -0.0298879 2.5604 -0.0298879C2.9589 -0.0298879 3.82565 -0.0298879 4.17435 -0L4.17435 -0.308842L3.85554 -0.308842C2.9589 -0.308842 2.92902 -0.418431 2.92902 -0.787049ZM2.92902 -0.787049M5.53923 -0M9.72354 -6.06725C9.8132 -6.1868 9.8132 -6.20672 9.8132 -6.41594L7.39228 -6.41594C6.17684 -6.41594 6.15691 -6.54545 6.11706 -6.73474L5.868 -6.73474L5.53923 -4.68244L5.78829 -4.68244C5.81818 -4.84184 5.90785 -5.46949 6.03736 -5.58904C6.1071 -5.64882 6.88418 -5.64882 7.0137 -5.64882L9.07597 -5.64882C8.96638 -5.48941 8.17933 -4.40349 7.96015 -4.07472C7.06351 -2.72976 6.73474 -1.34496 6.73474 -0.328767C6.73474 -0.229141 6.73474 0.219178 7.19303 0.219178C7.65131 0.219178 7.65131 -0.229141 7.65131 -0.328767L7.65131 -0.836862C7.65131 -1.38481 7.6812 -1.93275 7.7609 -2.47073C7.80075 -2.69988 7.94022 -3.55666 8.37858 -4.17435ZM8.37858 -4.17435" fill="black"/>
 </g>
 <path d="M2553.17 -5.66929L2553.17 -214.583L2722.11 -214.583L2722.11 -5.66929Z" stroke="black"/>
 <g transform="matrix(1.000000,0.000000,0.000000,1.000000,2637.637795,-110.125984)">
  <path d="M0.886675 -0M2.92902 -6.37609C2.92902 -6.61519 2.92902 -6.63512 2.69988 -6.63512C2.08219 -5.99751 1.20548 -5.99751 0.886675 -5.99751L0.886675 -5.68867C1.08593 -5.68867 1.67372 -5.68867 2.19178 -5.9477L2.19178 -0.787049C2.19178 -0.428394 2.16189 -0.308842 1.26526 -0.308842L0.946451 -0.308842L0.946451 -0C1.29514 -0.0298879 2.16189 -0.0298879 2.5604 -0.0298879C2.9589 -0.0298879 3.82565 -0.0298879 4.17435 -0L4.17435 -0.308842L3.85554 -0.308842C2.9589 -0.308842 2.92902 -0.418431 2.92902 -0.787049ZM2.92902 -0.787049M5.39975 -0M8.63761 -3.16812L8.63761 -2.84932C8.63761 -0.518057 7.60149 -0.0597758 7.02366 -0.0597758C6.8543 -0.0597758 6.31631 -0.0797011 6.04732 -0.418431C6.48568 -0.418431 6.56538 -0.707347 6.56538 -0.876712C6.56538 -1.18555 6.32628 -1.33499 6.1071 -1.33499C5.9477 -1.33499 5.64882 -1.24533 5.64882 -0.856787C5.64882 -0.18929 6.1868 0.219178 7.03362 0.219178C8.3188 0.219178 9.53425 -1.13574 9.53425 -3.27771C9.53425 -5.95766 8.38854 -6.63512 7.50187 -6.63512C6.95392 -6.63512 6.46575 -6.45579 6.03736 -6.00747C5.62889 -5.55915 5.39975 -5.14072 5.39975 -4.39352C5.39975 -3.14819 6.27646 -2.17186 7.39228 -2.17186C8 -2.17186 8.40847 -2.59029 8.63761 -3.16812ZM8.63761 -3.16812M7.40224 -2.401C7.24284 -2.401 6.78456 -2.401 6.47572 -3.02864C6.29639 -3.39726 6.29639 -3.89539 6.29639 -4.38356C6.29639 -4.92154 6.29639 -5.38979 6.5056 -5.75841C6.7746 -6.25654 7.15318 -6.38605 7.50187 -6.38605C7.96015 -6.38605 8.28892 -6.04732 8.45828 -5.599C8.57783 -5.2802 8.61768 -4.65255 8.61768 -4.19427C8.61768 -3.36737 8.27895 -2.401 7.40224 -2.401ZM7.40224 -2.401" fill="black"/>
 </g>
 <path d="M2727.78 -5.66929L2727.78 -214.583L2840.31 -214.583L2840.31 -5.66929Z" stroke="black"/>
 <g transform="matrix(1.000000,0.000000,0.000000,1.000000,2784.047244,-110.125984)">
  <path d="M0.498132 -0M1.26526 -0.767123L2.3213 -1.79328C3.87547 -3.16812 4.47323 -3.7061 4.47323 -4.70237C4.47323 -5.83811 3.57659 -6.63512 2.36115 -6.63512C1.23537 -6.63512 0.498132 -5.71856 0.498132 -4.83188C0.498132 -4.27397 0.996264 -4.27397 1.02615 -4.27397C1.19552 -4.27397 1.54421 -4.39352 1.54421 -4.80199C1.54421 -5.06102 1.36488 -5.32005 1.01619 -5.32005C0.936488 -5.32005 0.916563 -5.32005 0.886675 -5.31009C1.11582 -5.95766 1.6538 -6.32628 2.23163 -6.32628C3.13823 -6.32628 3.56663 -5.5193 3.56663 -4.70237C3.56663 -3.90535 3.06849 -3.11831 2.52055 -2.50062L0.607721 -0.368618C0.498132 -0.259029 0.498132 -0.239103 0.498132 -0L4.19427 -0L4.47323 -1.7335L4.22416 -1.7335C4.17435 -1.43462 4.10461 -0.996264 4.00498 -0.846824C3.93524 -0.767123 3.27771 -0.767123 3.05853 -0.767123ZM3.05853 -0.767123M5.868 -0M7.91034 -6.37609C7.91034 -6.61519 7.91034 -6.63512 7.6812 -6.63512C7.06351 -5.99751 6.1868 -5.99751 5.868 -5.99751L5.868 -5.68867C6.06725 -5.68867 6.65504 -5.68867 7.1731 -5.9477L7.1731 -0.787049C7.1731 -0.428394 7.14321 -0.308842 6.24658 -0.308842L5.92777 -0.308842L5.92777 -0C6.27646 -0.0298879 7.14321 -0.0298879 7.54172 -0.0298879C7.94022 -0.0298879 8.80697 -0.0298879 9.15567 -0L9.15567 -0.308842L8.83686 -0.308842C7.94022 -0.308842 7.91034 -0.418431 7.91034 -0.787049ZM7.91034 -0.787049" fill="black"/>
 </g>
 <path d="M2845.98 -5.66929L2845.98 -48.189L2978.36 -48.189L2978.36 -5.66929Z" stroke="black"/>
 <g transform="matrix(1.000000,0.000000,0.000000,1.000000,2912.173228,-26.929134)">
  <path d="M0.498132 -0M1.26526 -0.767123L2.3213 -1.79328C3.87547 -3.16812 4.47323 -3.7061 4.47323 -4.70237C4.47323 -5.83811 3.57659 -6.63512 2.36115 -6.63512C1.23537 -6.63512 0.498132 -5.71856 0.498132 -4.83188C0.498132 -4.27397 0.996264 -4.27397 1.02615 -4.27397C1.19552 -4.27397 1.54421 -4.39352 1.54421 -4.80199C1.54421 -5.06102 1.36488 -5.32005 1.01619 -5.32005C0.936488 -5.32005 0.916563 -5.32005 0.886675 -5.31009C1.11582 -5.95766 1.6538 -6.32628 2.23163 -6.32628C3.13823 -6.32628 3.56663 -5.5193 3.56663 -4.70237C3.56663 -3.90535 3.06849 -3.11831 2.52055 -2.50062L0.607721 -0.368618C0.498132 -0.259029 0.498132 -0.239103 0.498132 -0L4.19427 -0L4.47323 -1.7335L4.22416 -1.7335C4.17435 -1.43462 4.10461 -0.996264 4.00498 -0.846824C3.93524 -0.767123 3.27771 -0.767123 3.05853 -0.767123ZM3.05853 -0.767123M5.47945 -0M6.24658 -0.767123L7.30262 -1.79328C8.85679 -3.16812 9.45455 -3.7061 9.45455 -4.70237C9.45455 -5.83811 8.55791 -6.63512 7.34247 -6.63512C6.21669 -6.63512 5.47945 -5.71856 5.47945 -4.83188C5.47945 -4.27397 5.97758 -4.27397 6.00747 -4.27397C6.17684 -4.27397 6.52553 -4.39352 6.52553 -4.80199C6.52553 -5.06102 6.3462 -5.32005 5.99751 -5.32005C5.91781 -5.32005 5.89788 -5.32005 5.868 -5.31009C6.09714 -5.95766 6.63512 -6.32628 7.21295 -6.32628C8.11955 -6.32628 8.54795 -5.5193 8.54795 -4.70237C8.54795 -3.90535 8.04981 -3.11831 7.50187 -2.50062L5.58904 -0.368618C5.47945 -0.259029 5.47945 -0.239103 5.47945 -0L9.17559 -0L9.45455 -1.7335L9.20548 -1.7335C9.15567 -1.43462 9.08593 -0.996264 8.9863 -0.846824C8.91656 -0.767123 8.25903 -0.767123 8.03985 -0.767123ZM8.03985 -0.767123" fill="black"/>
 </g>
 <path d="M2984.03 -5.66929L2984.03 -88.1575L3116.41 -88.1575L3116.41 -5.66929Z" stroke="black"/>
 <g transform="matrix(1.000000,0.000000,0.000000,1.000000,3050.220472,-46.913386)">
  <path d="M0.498132 -0M1.26526 -0.767123L2.3213 -1.79328C3.87547 -3.16812 4.47323 -3.7061 4.47323 -4.70237C4.47323 -5.83811 3.57659 -6.63512 2.36115 -6.63512C1.23537 -6.63512 0.498132 -5.71856 0.498132 -4.83188C0.498132 -4.27397 0.996264 -4.27397 1.02615 -4.27397C1.19552 -4.27397 1.54421 -4.39352 1.54421 -4.80199C1.54421 -5.06102 1.36488 -5.32005 1.01619 -5.32005C0.936488 -5.32005 0.916563 -5.32005 0.886675 -5.31009C1.11582 -5.95766 1.6538 -6.32628 2.23163 -6.32628C3.13823 -6.32628 3.56663 -5.5193 3.56663 -4.70237C3.56663 -3.90535 3.06849 -3.11831 2.52055 -2.50062L0.607721 -0.368618C0.498132 -0.259029 0.498132 -0.239103 0.498132 -0L4.19427 -0L4.47323 -1.7335L4.22416 -1.7335C4.17435 -1.43462 4.10461 -0.996264 4.00498 -0.846824C3.93524 -0.767123 3.27771 -0.767123 3.05853 -0.767123ZM3.05853 -0.767123M5.39975 -0M7.87049 -3.50685C8.68742 -3.77584 9.26526 -4.47323 9.26526 -5.26027C9.26526 -6.07721 8.38854 -6.63512 7.43213 -6.63512C6.4259 -6.63512 5.66874 -6.03736 5.66874 -5.2802C5.66874 -4.95143 5.88792 -4.76214 6.17684 -4.76214C6.48568 -4.76214 6.68493 -4.98132 6.68493 -5.27024C6.68493 -5.76837 6.21669 -5.76837 6.06725 -5.76837C6.37609 -6.25654 7.03362 -6.38605 7.39228 -6.38605C7.80075 -6.38605 8.34869 -6.16687 8.34869 -5.27024C8.34869 -5.15068 8.32877 -4.57285 8.06974 -4.1345C7.77086 -3.65629 7.43213 -3.6264 7.18306 -3.61644C7.10336 -3.60648 6.86426 -3.58655 6.79452 -3.58655C6.71482 -3.57659 6.64508 -3.56663 6.64508 -3.467C6.64508 -3.35741 6.71482 -3.35741 6.88418 -3.35741L7.32254 -3.35741C8.13948 -3.35741 8.50809 -2.67995 8.50809 -1.70361C8.50809 -0.348692 7.82067 -0.0597758 7.38232 -0.0597758C6.95392 -0.0597758 6.20672 -0.229141 5.85803 -0.816936C6.20672 -0.767123 6.51557 -0.986301 6.51557 -1.36488C6.51557 -1.72354 6.24658 -1.92279 5.95766 -1.92279C5.71856 -1.92279 5.39975 -1.78331 5.39975 -1.34496C5.39975 -0.438356 6.32628 0.219178 7.4122 0.219178C8.62765 0.219178 9.53425 -0.687422 9.53425 -1.70361C9.53425 -2.52055 8.9066 -3.29763 7.87049 -3.50685ZM7.87049 -3.50685" fill="black"/>
 </g>
 <path d="M2984.03 -93.8268L2984.03 -176.315L3116.41 -176.315L3116.41 -93.8268Z" stroke="black"/>
 <g transform="matrix(1.000000,0.000000,0.000000,1.000000,3050.220472,-135.070866)">
  <path d="M0.498132 -0M1.26526 -0.767123L2.3213 -1.79328C3.87547 -3.16812 4.47323 -3.7061 4.47323 -4.70237C4.47323 -5.83811 3.57659 -6.63512 2.36115 -6.63512C1.23537 -6.63512 0.498132 -5.71856 0.498132 -4.83188C0.498132 -4.27397 0.996264 -4.27397 1.02615 -4.27397C1.19552 -4.27397 1.54421 -4.39352 1.54421 -4.80199C1.54421 -5.06102 1.36488 -5.32005 1.01619 -5.32005C0.936488 -5.32005 0.916563 -5.32005 0.886675 -5.31009C1.11582 -5.95766 1.6538 -6.32628 2.23163 -6.32628C3.13823 -6.32628 3.56663 -5.5193 3.56663 -4.70237C3.56663 -3.90535 3.06849 -3.11831 2.52055 -2.50062L0.607721 -0.368618C0.498132 -0.259029 0.498132 -0.239103 0.498132 -0L4.19427 -0L4.47323 -1.7335L4.22416 -1.7335C4.17435 -1.43462 4.10461 -0.996264 4.00498 -0.846824C3.93524 -0.767123 3.27771 -0.767123 3.05853 -0.767123ZM3.05853 -0.767123M5.39975 -0M7.87049 -3.50685C8.68742 -3.77584 9.26526 -4.47323 9.26526 -5.26027C9.26526 -6.07721 8.38854 -6.63512 7.43213 -6.63512C6.4259 -6.63512 5.66874 -6.03736 5.66874 -5.2802C5.66874 -4.95143 5.88792 -4.76214 6.17684 -4.76214C6.48568 -4.76214 6.68493 -4.98132 6.68493 -5.27024C6.68493 -5.76837 6.21669 -5.76837 6.06725 -5.76837C6.37609 -6.25654 7.03362 -6.38605 7.39228 -6.38605C7.80075 -6.38605 8.34869 -6.16687 8.34869 -5.27024C8.34869 -5.15068 8.32877 -4.57285 8.06974 -4.1345C7.77086 -3.65629 7.43213 -3.6264 7.18306 -3.61644C7.10336 -3.60648 6.86426 -3.58655 6.79452 -3.58655C6.71482 -3.57659 6.64508 -3.56663 6.64508 -3.467C6.64508 -3.35741 6.71482 -3.35741 6.88418 -3.35741L7.32254 -3.35741C8.13948 -3.35741 8.50809 -2.67995 8.50809 -1.70361C8.50809 -0.348692 7.82067 -0.0597758 7.38232 -0.0597758C6.95392 -0.0597758 6.20672 -0.229141 5.85803 -0.816936C6.20672 -0.767123 6.51557 -0.986301 6.51557 -1.36488C6.51557 -1.72354 6.24658 -1.92279 5.95766 -1.92279C5.71856 -1.92279 5.39975 -1.78331 5.39975 -1.34496C5.39975 -0.438356 6.32628 0.219178 7.4122 0.219178C8.62765 0.219178 9.53425 -0.687422 9.53425 -1.70361C9.53425 -2.52055 8.9066 -3.29763 7.87049 -3.50685ZM7.87049 -3.50685" fill="black"/>
 </g>
 <path d="M3122.08 -5.66929L3122.08 -350.646L3291.31 -350.646L3291.31 -5.66929Z" stroke="black"/>
 <g transform="matrix(1.000000,0.000000,0.000000,1.000000,3206.692913,-178.157480)">
  <path d="M0.418431 -0M2.88917 -3.50685C3.7061 -3.77584 4.28394 -4.47323 4.28394 -5.26027C4.28394 -6.07721 3.40722 -6.63512 2.45081 -6.63512C1.44458 -6.63512 0.687422 -6.03736 0.687422 -5.2802C0.687422 -4.95143 0.9066 -4.76214 1.19552 -4.76214C1.50436 -4.76214 1.70361 -4.98132 1.70361 -5.27024C1.70361 -5.76837 1.23537 -5.76837 1.08593 -5.76837C1.39477 -6.25654 2.0523 -6.38605 2.41096 -6.38605C2.81943 -6.38605 3.36737 -6.16687 3.36737 -5.27024C3.36737 -5.15068 3.34745 -4.57285 3.08842 -4.1345C2.78954 -3.65629 2.45081 -3.6264 2.20174 -3.61644C2.12204 -3.60648 1.88294 -3.58655 1.8132 -3.58655C1.7335 -3.57659 1.66376 -3.56663 1.66376 -3.467C1.66376 -3.35741 1.7335 -3.35741 1.90286 -3.35741L2.34122 -3.35741C3.15816 -3.35741 3.52677 -2.67995 3.52677 -1.70361C3.52677 -0.348692 2.83935 -0.0597758 2.401 -0.0597758C1.9726 -0.0597758 1.2254 -0.229141 0.876712 -0.816936C1.2254 -0.767123 1.53425 -0.986301 1.53425 -1.36488C1.53425 -1.72354 1.26526 -1.92279 0.976339 -1.92279C0.737235 -1.92279 0.418431 -1.78331 0.418431 -1.34496C0.418431 -0.438356 1.34496 0.219178 2.43088 0.219178C3.64633 0.219178 4.55293 -0.687422 4.55293 -1.70361C4.55293 -2.52055 3.92528 -3.29763 2.88917 -3.50685ZM2.88917 -3.50685M5.36986 -0M9.56413 -3.18804C9.56413 -3.98506 9.51432 -4.78207 9.16563 -5.5193C8.70735 -6.47572 7.89041 -6.63512 7.47198 -6.63512C6.87422 -6.63512 6.14695 -6.37609 5.73848 -5.44956C5.41968 -4.76214 5.36986 -3.98506 5.36986 -3.18804C5.36986 -2.44085 5.40971 -1.54421 5.81818 -0.787049C6.24658 0.0199253 6.97385 0.219178 7.46202 0.219178C8 0.219178 8.75716 0.00996264 9.19552 -0.936488C9.51432 -1.62391 9.56413 -2.401 9.56413 -3.18804ZM9.56413 -3.18804M7.46202 -0C7.07347 -0 6.48568 -0.249066 6.30635 -1.20548C6.19676 -1.80324 6.19676 -2.7198 6.19676 -3.3076C6.19676 -3.94521 6.19676 -4.60274 6.27646 -5.14072C6.46575 -6.32628 7.21295 -6.41594 7.46202 -6.41594C7.79078 -6.41594 8.44832 -6.23661 8.63761 -5.25031C8.73724 -4.6924 8.73724 -3.93524 8.73724 -3.3076C8.73724 -2.5604 8.73724 -1.88294 8.62765 -1.24533C8.47821 -0.298879 7.91034 -0 7.46202 -0ZM7.46202 -0" fill="black"/>
 </g>
 <path d="M3296.98 -5.66929L3296.98 -98.3622L3466.2 -98.3622L3466.2 -5.66929Z" stroke="black"/>
 <g transform="matrix(1.000000,0.000000,0.000000,1.000000,3381.590551,-52.015748)">
  <path d="M0.418431 -0M2.88917 -3.50685C3.7061 -3.77584 4.28394 -4.47323 4.28394 -5.26027C4.28394 -6.07721 3.40722 -6.63512 2.45081 -6.63512C1.44458 -6.63512 0.687422 -6.03736 0.687422 -5.2802C0.687422 -4.95143 0.9066 -4.76214 1.19552 -4.76214C1.50436 -4.76214 1.70361 -4.98132 1.70361 -5.27024C1.70361 -5.76837 1.23537 -5.76837 1.08593 -5.76837C1.39477 -6.25654 2.0523 -6.38605 2.41096 -6.38605C2.81943 -6.38605 3.36737 -6.16687 3.36737 -5.27024C3.36737 -5.15068 3.34745 -4.57285 3.08842 -4.1345C2.78954 -3.65629 2.45081 -3.6264 2.20174 -3.61644C2.12204 -3.60648 1.88294 -3.58655 1.8132 -3.58655C1.7335 -3.57659 1.66376 -3.56663 1.66376 -3.467C1.66376 -3.35741 1.7335 -3.35741 1.90286 -3.35741L2.34122 -3.35741C3.15816 -3.35741 3.52677 -2.67995 3.52677 -1.70361C3.52677 -0.348692 2.83935 -0.0597758 2.401 -0.0597758C1.9726 -0.0597758 1.2254 -0.229141 0.876712 -0.816936C1.2254 -0.767123 1.53425 -0.986301 1.53425 -1.36488C1.53425 -1.72354 1.26526 -1.92279 0.976339 -1.92279C0.737235 -1.92279 0.418431 -1.78331 0.418431 -1.34496C0.418431 -0.438356 1.34496 0.219178 2.43088 0.219178C3.64633 0.219178 4.55293 -0.687422 4.55293 -1.70361C4.55293 -2.52055 3.92528 -3.29763 2.88917 -3.50685ZM2.88917 -3.50685M5.47945 -0M6.24658 -0.767123L7.30262 -1.79328C8.85679 -3.16812 9.45455 -3.7061 9.45455 -4.70237C9.45455 -5.83811 8.55791 -6.63512 7.34247 -6.63512C6.21669 -6.63512 5.47945 -5.71856 5.47945 -4.83188C5.47945 -4.27397 5.97758 -4.27397 6.00747 -4.27397C6.17684 -4.27397 6.52553 -4.39352 6.52553 -4.80199C6.52553 -5.06102 6.3462 -5.32005 5.99751 -5.32005C5.91781 -5.32005 5.89788 -5.32005 5.868 -5.31009C6.09714 -5.95766 6.63512 -6.32628 7.21295 -6.32628C8.11955 -6.32628 8.54795 -5.5193 8.54795 -4.70237C8.54795 -3.90535 8.04981 -3.11831 7.50187 -2.50062L5.58904 -0.368618C5.47945 -0.259029 5.47945 -0.239103 5.47945 -0L9.17559 -0L9.45455 -1.7335L9.20548 -1.7335C9.15567 -1.43462 9.08593 -0.996264 8.9863 -0.846824C8.91656 -0.767123 8.25903 -0.767123 8.03985 -0.767123ZM8.03985 -0.767123" fill="black"/>
 </g>
 <path d="M3471.87 -5.66929L3471.87 -98.3622L3726.14 -98.3622L3726.14 -5.66929Z" stroke="black"/>
 <g transform="matrix(1.000000,0.000000,0.000000,1.000000,3599.007874,-52.015748)">
  <path d="M0.418431 -0M2.88917 -3.50685C3.7061 -3.77584 4.28394 -4.47323 4.28394 -5.26027C4.28394 -6.07721 3.40722 -6.63512 2.45081 -6.63512C1.44458 -6.63512 0.687422 -6.03736 0.687422 -5.2802C0.687422 -4.95143 0.9066 -4.76214 1.19552 -4.76214C1.50436 -4.76214 1.70361 -4.98132 1.70361 -5.27024C1.70361 -5.76837 1.23537 -5.76837 1.08593 -5.76837C1.39477 -6.25654 2.0523 -6.38605 2.41096 -6.38605C2.81943 -6.38605 3.36737 -6.16687 3.36737 -5.27024C3.36737 -5.15068 3.34745 -4.57285 3.08842 -4.1345C2.78954 -3.65629 2.45081 -3.6264 2.20174 -3.61644C2.12204 -3.60648 1.88294 -3.58655 1.8132 -3.58655C1.7335 -3.57659 1.66376 -3.56663 1.66376 -3.467C1.66376 -3.35741 1.7335 -3.35741 1.90286 -3.35741L2.34122 -3.35741C3.15816 -3.35741 3.52677 -2.67995 3.52677 -1.70361C3.52677 -0.348692 2.83935 -0.0597758 2.401 -0.0597758C1.9726 -0.0597758 1.2254 -0.229141 0.876712 -0.816936C1.2254 -0.767123 1.53425 -0.986301 1.53425 -1.36488C1.53425 -1.72354 1.26526 -1.92279 0.976339 -1.92279C0.737235 -1.92279 0.418431 -1.78331 0.418431 -1.34496C0.418431 -0.438356 1.34496 0.219178 2.43088 0.219178C3.64633 0.219178 4.55293 -0.687422 4.55293 -1.70361C4.55293 -2.52055 3.92528 -3.29763 2.88917 -3.50685ZM2.88917 -3.50685M5.26027 -0M7.91034 -1.64384L7.91034 -0.777086C7.91034 -0.418431 7.89041 -0.308842 7.15318 -0.308842L6.94396 -0.308842L6.94396 -0C7.35243 -0.0298879 7.87049 -0.0298879 8.28892 -0.0298879C8.70735 -0.0298879 9.23537 -0.0298879 9.64384 -0L9.64384 -0.308842L9.43462 -0.308842C8.69738 -0.308842 8.67746 -0.418431 8.67746 -0.777086L8.67746 -1.64384L9.67372 -1.64384L9.67372 -1.95268L8.67746 -1.95268L8.67746 -6.48568C8.67746 -6.68493 8.67746 -6.74471 8.51806 -6.74471C8.42839 -6.74471 8.39851 -6.74471 8.3188 -6.62516L5.26027 -1.95268L5.26027 -1.64384ZM5.26027 -1.64384M7.97011 -1.95268L5.53923 -1.95268L7.97011 -5.66874ZM7.97011 -5.66874" fill="black"/>
 </g>
 <path d="M3731.81 -5.66929L3731.81 -98.3622L3901.04 -98.3622L3901.04 -5.66929Z" stroke="black"/>
 <g transform="matrix(1.000000,0.000000,0.000000,1.000000,3816.425197,-52.015748)">
  <path d="M0.418431 -0M2.88917 -3.50685C3.7061 -3.77584 4.28394 -4.47323 4.28394 -5.26027C4.28394 -6.07721 3.40722 -6.63512 2.45081 -6.63512C1.44458 -6.63512 0.687422 -6.03736 0.687422 -5.2802C0.687422 -4.95143 0.9066 -4.76214 1.19552 -4.76214C1.50436 -4.76214 1.70361 -4.98132 1.70361 -5.27024C1.70361 -5.76837 1.23537 -5.76837 1.08593 -5.76837C1.39477 -6.25654 2.0523 -6.38605 2.41096 -6.38605C2.81943 -6.38605 3.36737 -6.16687 3.36737 -5.27024C3.36737 -5.15068 3.34745 -4.57285 3.08842 -4.1345C2.78954 -3.65629 2.45081 -3.6264 2.20174 -3.61644C2.12204 -3.60648 1.88294 -3.58655 1.8132 -3.58655C1.7335 -3.57659 1.66376 -3.56663 1.66376 -3.467C1.66376 -3.35741 1.7335 -3.35741 1.90286 -3.35741L2.34122 -3.35741C3.15816 -3.35741 3.52677 -2.67995 3.52677 -1.70361C3.52677 -0.348692 2.83935 -0.0597758 2.401 -0.0597758C1.9726 -0.0597758 1.2254 -0.229141 0.876712 -0.816936C1.2254 -0.767123 1.53425 -0.986301 1.53425 -1.36488C1.53425 -1.72354 1.26526 -1.92279 0.976339 -1.92279C0.737235 -1.92279 0.418431 -1.78331 0.418431 -1.34496C0.418431 -0.438356 1.34496 0.219178 2.43088 0.219178C3.64633 0.219178 4.55293 -0.687422 4.55293 -1.70361C4.55293 -2.52055 3.92528 -3.29763 2.88917 -3.50685ZM2.88917 -3.50685M5.53923 -0M9.72354 -6.06725C9.8132 -6.1868 9.8132 -6.20672 9.8132 -6.41594L7.39228 -6.41594C6.17684 -6.41594 6.15691 -6.54545 6.11706 -6.73474L5.868 -6.73474L5.53923 -4.68244L5.78829 -4.68244C5.81818 -4.84184 5.90785 -5.46949 6.03736 -5.58904C6.1071 -5.64882 6.88418 -5.64882 7.0137 -5.64882L9.07597 -5.64882C8.96638 -5.48941 8.17933 -4.40349 7.96015 -4.07472C7.06351 -2.72976 6.73474 -1.34496 6.73474 -0.328767C6.73474 -0.229141 6.73474 0.219178 7.19303 0.219178C7.65131 0.219178 7.65131 -0.229141 7.65131 -0.328767L7.65131 -0.836862C7.65131 -1.38481 7.6812 -1.93275 7.7609 -2.47073C7.80075 -2.69988 7.94022 -3.55666 8.37858 -4.17435ZM8.37858 -4.17435" fill="black"/>
 </g>
 <path d="M3731.81 -104.031L3731.81 -196.724L3901.04 -196.724L3901.04 -104.031Z" stroke="black"/>
 <g transform="matrix(1.000000,0.000000,0.000000,1.000000,3816.425197,-150.377953)">
  <path d="M0.418431 -0M2.88917 -3.50685C3.7061 -3.77584 4.28394 -4.47323 4.28394 -5.26027C4.28394 -6.07721 3.40722 -6.63512 2.45081 -6.63512C1.44458 -6.63512 0.687422 -6.03736 0.687422 -5.2802C0.687422 -4.95143 0.9066 -4.76214 1.19552 -4.76214C1.50436 -4.76214 1.70361 -4.98132 1.70361 -5.27024C1.70361 -5.76837 1.23537 -5.76837 1.08593 -5.76837C1.39477 -6.25654 2.0523 -6.38605 2.41096 -6.38605C2.81943 -6.38605 3.36737 -6.16687 3.36737 -5.27024C3.36737 -5.15068 3.34745 -4.57285 3.08842 -4.1345C2.78954 -3.65629 2.45081 -3.6264 2.20174 -3.61644C2.12204 -3.60648 1.88294 -3.58655 1.8132 -3.58655C1.7335 -3.57659 1.66376 -3.56663 1.66376 -3.467C1.66376 -3.35741 1.7335 -3.35741 1.90286 -3.35741L2.34122 -3.35741C3.15816 -3.35741 3.52677 -2.67995 3.52677 -1.70361C3.52677 -0.348692 2.83935 -0.0597758 2.401 -0.0597758C1.9726 -0.0597758 1.2254 -0.229141 0.876712 -0.816936C1.2254 -0.767123 1.53425 -0.986301 1.53425 -1.36488C1.53425 -1.72354 1.26526 -1.92279 0.976339 -1.92279C0.737235 -1.92279 0.418431 -1.78331 0.418431 -1.34496C0.418431 -0.438356 1.34496 0.219178 2.43088 0.219178C3.64633 0.219178 4.55293 -0.687422 4.55293 -1.70361C4.55293 -2.52055 3.92528 -3.29763 2.88917 -3.50685ZM2.88917 -3.50685M5.53923 -0M9.72354 -6.06725C9.8132 -6.1868 9.8132 -6.20672 9.8132 -6.41594L7.39228 -6.41594C6.17684 -6.41594 6.15691 -6.54545 6.11706 -6.73474L5.868 -6.73474L5.53923 -4.68244L5.78829 -4.68244C5.81818 -4.84184 5.90785 -5.46949 6.03736 -5.58904C6.1071 -5.64882 6.88418 -5.64882 7.0137 -5.64882L9.07597 -5.64882C8.96638 -5.48941 8.17933 -4.40349 7.96015 -4.07472C7.06351 -2.72976 6.73474 -1.34496 6.73474 -0.328767C6.73474 -0.229141 6.73474 0.219178 7.19303 0.219178C7.65131 0.219178 7.65131 -0.229141 7.65131 -0.328767L7.65131 -0.836862C7.65131 -1.38481 7.6812 -1.93275 7.7609 -2.47073C7.80075 -2.69988 7.94022 -3.55666 8.37858 -4.17435ZM8.37858 -4.17435" fill="black"/>
 </g>
 <path d="M3906.71 -5.66929L3906.71 -98.3622L4118.46 -98.3622L4118.46 -5.66929Z" stroke="black"/>
 <g transform="matrix(1.000000,0.000000,0.000000,1.000000,4012.582677,-52.015748)">
  <path d="M0.418431 -0M2.88917 -3.50685C3.7061 -3.77584 4.28394 -4.47323 4.28394 -5.26027C4.28394 -6.07721 3.40722 -6.63512 2.45081 -6.63512C1.44458 -6.63512 0.687422 -6.03736 0.687422 -5.2802C0.687422 -4.95143 0.9066 -4.76214 1.19552 -4.76214C1.50436 -4.76214 1.70361 -4.98132 1.70361 -5.27024C1.70361 -5.76837 1.23537 -5.76837 1.08593 -5.76837C1.39477 -6.25654 2.0523 -6.38605 2.41096 -6.38605C2.81943 -6.38605 3.36737 -6.16687 3.36737 -5.27024C3.36737 -5.15068 3.34745 -4.57285 3.08842 -4.1345C2.78954 -3.65629 2.45081 -3.6264 2.20174 -3.61644C2.12204 -3.60648 1.88294 -3.58655 1.8132 -3.58655C1.7335 -3.57659 1.66376 -3.56663 1.66376 -3.467C1.66376 -3.35741 1.7335 -3.35741 1.90286 -3.35741L2.34122 -3.35741C3.15816 -3.35741 3.52677 -2.67995 3.52677 -1.70361C3.52677 -0.348692 2.83935 -0.0597758 2.401 -0.0597758C1.9726 -0.0597758 1.2254 -0.229141 0.876712 -0.816936C1.2254 -0.767123 1.53425 -0.986301 1.53425 -1.36488C1.53425 -1.72354 1.26526 -1.92279 0.976339 -1.92279C0.737235 -1.92279 0.418431 -1.78331 0.418431 -1.34496C0.418431 -0.438356 1.34496 0.219178 2.43088 0.219178C3.64633 0.219178 4.55293 -0.687422 4.55293 -1.70361C4.55293 -2.52055 3.92528 -3.29763 2.88917 -3.50685ZM2.88917 -3.50685M5.39975 -0M6.60523 -4.55293C6.14695 -4.85181 6.1071 -5.19054 6.1071 -5.3599C6.1071 -5.96762 6.75467 -6.38605 7.46202 -6.38605C8.18929 -6.38605 8.8269 -5.868 8.8269 -5.15068C8.8269 -4.58281 8.43836 -4.10461 7.8406 -3.75592ZM7.8406 -3.75592M8.05978 -3.60648C8.77709 -3.97509 9.26526 -4.49315 9.26526 -5.15068C9.26526 -6.06725 8.37858 -6.63512 7.47198 -6.63512C6.47572 -6.63512 5.66874 -5.89788 5.66874 -4.97136C5.66874 -4.79203 5.68867 -4.34371 6.1071 -3.87547C6.21669 -3.75592 6.58531 -3.50685 6.83437 -3.33748C6.25654 -3.04857 5.39975 -2.49066 5.39975 -1.50436C5.39975 -0.448319 6.41594 0.219178 7.46202 0.219178C8.5878 0.219178 9.53425 -0.607721 9.53425 -1.67372C9.53425 -2.03238 9.42466 -2.4807 9.04608 -2.89913C8.85679 -3.10834 8.69738 -3.20797 8.05978 -3.60648ZM8.05978 -3.60648M7.06351 -3.18804L8.28892 -2.41096C8.56787 -2.22167 9.03611 -1.92279 9.03611 -1.31507C9.03611 -0.577833 8.28892 -0.0597758 7.47198 -0.0597758C6.61519 -0.0597758 5.89788 -0.67746 5.89788 -1.50436C5.89788 -2.08219 6.21669 -2.7198 7.06351 -3.18804ZM7.06351 -3.18804" fill="black"/>
 </g>
</svg>
